<svg xmlns="http://www.w3.org/2000/svg" width="1716" height="940" viewBox="0 0 1716 940" role="img" aria-labelledby="title desc">
  <title id="title">Hanabi Seed 35 Palette Preview</title>
  <desc id="desc">Each card background is set to a practical usage background for that token.</desc>
  <rect x="0" y="0" width="1716" height="940" fill="#111015" />
  <text x="40" y="56" fill="#F8F8F2" font-family="Menlo, Monaco, Consolas, monospace" font-size="28" font-weight="700">Hanabi Seed 35 (Context Background Preview)</text>
  <text x="40" y="86" fill="#B8B3CF" font-family="Menlo, Monaco, Consolas, monospace" font-size="16">Card background now reflects practical usage context for each token</text>
  <text x="40" y="110" fill="#8D88A8" font-family="Menlo, Monaco, Consolas, monospace" font-size="13">Line 3 on each card shows the context background token used for preview.</text>

  <!-- Decorative: embedded Hanabi icon (vector, no external refs) -->
  <g transform="translate(1564 16) scale(0.21875)">
    <path d="M460.8 0H51.2C22.923 0 0 25.47 0 56.8889V455.111C0 486.53 22.923 512 51.2 512H460.8C489.077 512 512 486.53 512 455.111V56.8889C512 25.47 489.077 0 460.8 0Z" fill="#21202C"/>
    <path d="M206.285 293.487C204.688 293.487 203.09 292.899 201.829 291.638C199.39 289.199 199.39 285.163 201.829 282.725L228.82 255.733L201.829 228.742C199.39 226.303 199.39 222.267 201.829 219.829C204.267 217.39 208.303 217.39 210.742 219.829L242.19 251.277C244.628 253.715 244.628 257.751 242.19 260.19L210.742 291.638C209.481 292.899 207.883 293.487 206.285 293.487Z" fill="#FCFCFA"/>
    <path d="M305.001 293.487H254.55C251.103 293.487 248.244 290.629 248.244 287.181C248.244 283.734 251.103 280.875 254.55 280.875H305.001C308.449 280.875 311.308 283.734 311.308 287.181C311.308 290.629 308.449 293.487 305.001 293.487Z" fill="#FCFCFA"/>
    <path fill-rule="evenodd" clip-rule="evenodd" d="M255.312 185.016C249.087 185.016 244.03 179.958 244.03 173.733V119.653C244.03 113.428 249.087 108.371 255.312 108.371C261.538 108.371 266.595 113.428 266.595 119.653V173.733C266.595 179.958 261.538 185.016 255.312 185.016Z" fill="#FFF066"/>
    <path fill-rule="evenodd" clip-rule="evenodd" d="M296.553 196.299C294.997 196.299 293.052 195.521 291.106 194.743C285.66 191.63 283.714 184.627 286.827 179.18L345.965 77.2453C349.077 71.7984 356.08 69.8531 361.527 72.9656C366.585 76.0781 368.53 83.0813 365.418 88.5282L306.669 190.463C304.335 193.965 300.444 196.299 296.553 196.299Z" fill="#FB6583"/>
    <path fill-rule="evenodd" clip-rule="evenodd" d="M326.9 226.256C323.01 226.256 319.119 224.311 317.174 220.809C314.061 215.363 316.006 208.36 321.453 205.247L368.14 178.402C373.587 175.29 380.59 176.846 383.703 182.293C386.815 187.739 384.87 194.743 379.423 197.855L332.736 224.7C330.791 225.867 328.845 226.256 326.9 226.256Z" fill="#FFB65E"/>
    <path fill-rule="evenodd" clip-rule="evenodd" d="M456.07 267.498H338.183C331.958 267.498 326.9 262.44 326.9 256.215C326.9 249.99 331.958 244.932 338.183 244.932H456.07C462.295 244.932 467.353 249.99 467.353 256.215C467.353 262.44 462.295 267.498 456.07 267.498Z" fill="#FF6FA0"/>
    <path fill-rule="evenodd" clip-rule="evenodd" d="M373.587 335.973C372.031 335.973 370.086 335.583 368.14 334.416L321.453 307.571C316.006 304.459 314.061 297.456 317.174 292.009C320.286 286.562 327.289 284.617 332.736 287.729L379.423 314.963C384.87 318.076 386.815 325.079 383.703 330.526C381.368 334.027 377.867 335.973 373.587 335.973Z" fill="#FFE74A"/>
    <path fill-rule="evenodd" clip-rule="evenodd" d="M355.691 441.41C351.801 441.41 347.91 439.464 345.965 435.574L286.827 333.639C283.714 328.192 285.66 321.189 291.106 318.076C296.553 314.964 303.557 316.909 306.669 322.356L365.418 424.291C368.53 429.738 366.585 436.741 361.527 439.853C359.582 441.021 357.637 441.41 355.691 441.41Z" fill="#FC6B74"/>
    <path fill-rule="evenodd" clip-rule="evenodd" d="M255.312 404.449C249.087 404.449 244.03 399.391 244.03 393.166V339.086C244.03 332.861 249.087 327.803 255.312 327.803C261.538 327.803 266.595 332.861 266.595 339.086V393.166C266.595 399.391 261.538 404.449 255.312 404.449Z" fill="#FFF79E"/>
    <path fill-rule="evenodd" clip-rule="evenodd" d="M155.323 441.41C153.378 441.41 151.432 441.021 149.487 439.853C144.04 436.741 142.484 429.738 145.596 424.291L204.345 322.356C207.458 316.909 214.461 314.964 219.908 318.076C225.354 321.189 226.911 328.192 223.798 333.639L165.049 435.574C162.715 439.464 159.214 441.41 155.323 441.41Z" fill="#E66B9A"/>
    <path fill-rule="evenodd" clip-rule="evenodd" d="M137.037 335.973C133.146 335.973 129.255 334.027 127.31 330.526C124.198 325.079 126.143 318.076 131.59 314.963L178.277 287.729C183.724 284.617 190.727 286.562 193.839 292.009C196.952 297.456 195.006 304.459 189.559 307.571L142.872 334.416C140.927 335.583 138.982 335.973 137.037 335.973Z" fill="#FFB65E"/>
    <path fill-rule="evenodd" clip-rule="evenodd" d="M172.831 267.498H54.9442C48.7192 267.498 43.6614 262.44 43.6614 256.215C43.6614 249.99 48.7192 244.932 54.9442 244.932H172.831C179.056 244.932 184.114 249.99 184.114 256.215C184.114 262.44 179.056 267.498 172.831 267.498Z" fill="#FB6583"/>
    <path fill-rule="evenodd" clip-rule="evenodd" d="M184.113 226.256C182.167 226.256 180.222 225.867 178.277 224.7L131.59 197.855C126.143 194.743 124.198 187.739 127.31 182.293C130.423 176.846 137.426 175.29 142.872 178.402L189.559 205.247C195.006 208.36 196.952 215.363 193.839 220.809C191.505 224.311 188.003 226.256 184.113 226.256Z" fill="#FFF066"/>
    <path fill-rule="evenodd" clip-rule="evenodd" d="M214.072 196.299C210.181 196.299 206.29 193.965 204.345 190.463L145.596 88.5282C142.484 83.0813 144.04 76.0781 149.487 72.9656C154.934 69.8531 161.937 71.7984 165.049 77.2453L223.798 179.18C226.911 184.627 225.354 191.63 219.908 194.743C217.962 195.521 216.017 196.299 214.072 196.299Z" fill="#FF6FA0"/>
    <path fill-rule="evenodd" clip-rule="evenodd" d="M302 82.3024C300.444 82.3024 299.276 82.3024 298.109 81.5243C292.273 79.579 289.161 72.965 291.495 67.1291L303.167 36.3935C305.112 30.5577 311.726 27.4452 317.562 29.7795C323.398 32.1139 326.51 38.7279 324.176 44.5638L312.504 75.2994C310.948 79.579 306.669 82.3024 302 82.3024Z" fill="#5CFFF0"/>
    <path fill-rule="evenodd" clip-rule="evenodd" d="M209.013 82.3024C204.345 82.3024 200.065 79.579 198.509 75.2994L186.837 44.5638C184.503 38.7279 187.615 32.1139 193.451 29.7795C199.287 27.4452 205.512 30.5577 207.846 36.3935L219.518 67.1291C221.852 72.965 218.74 79.579 212.904 81.5243C211.737 82.3024 210.181 82.3024 209.013 82.3024Z" fill="#FCFCFA"/>
    <path fill-rule="evenodd" clip-rule="evenodd" d="M438.951 215.363C433.893 215.363 428.835 211.472 428.057 206.026C426.89 199.801 431.169 193.965 437.394 192.798L469.686 187.74C475.911 186.573 481.747 190.852 482.914 197.077C483.692 202.913 479.413 208.749 473.577 209.916L440.896 215.363C440.507 215.363 439.729 215.363 438.951 215.363Z" fill="#82FA82"/>
    <path fill-rule="evenodd" clip-rule="evenodd" d="M392.652 134.826C389.929 134.826 387.594 134.048 385.649 132.103C380.591 128.212 379.813 121.209 383.704 116.151L404.713 90.8627C408.603 86.194 415.606 85.4158 420.664 89.3064C425.333 93.197 426.111 100.2 422.22 105.258L401.211 130.547C399.266 133.27 395.764 134.826 392.652 134.826Z" fill="#FCFCFA"/>
    <path fill-rule="evenodd" clip-rule="evenodd" d="M413.272 425.846C410.16 425.846 407.047 424.679 404.713 421.956L384.093 396.278C379.813 391.609 380.591 384.606 385.649 380.716C390.318 376.436 397.321 377.214 401.211 382.272L422.22 407.561C426.111 412.229 425.333 419.621 420.664 423.512C418.33 425.068 415.996 425.846 413.272 425.846Z" fill="#6F90FF"/>
    <path fill-rule="evenodd" clip-rule="evenodd" d="M471.632 325.468C470.853 325.468 470.464 325.468 469.686 325.079L437.394 320.021C431.169 318.854 426.89 313.018 428.057 306.793C428.835 300.568 434.671 296.678 440.896 297.456L473.577 302.903C479.413 304.07 483.692 309.517 482.914 315.742C481.747 321.578 477.078 325.468 471.632 325.468Z" fill="#6D92F7"/>
    <path fill-rule="evenodd" clip-rule="evenodd" d="M197.342 483.817C195.785 483.817 194.618 483.428 193.451 483.039C187.615 480.705 184.503 474.091 186.837 468.255L198.509 437.519C200.454 431.683 207.068 428.96 212.904 430.905C218.74 433.24 221.852 439.854 219.518 445.689L207.846 476.425C206.29 481.094 202.01 483.817 197.342 483.817Z" fill="#5CFFF0"/>
    <path fill-rule="evenodd" clip-rule="evenodd" d="M313.672 483.817C309.003 483.817 304.723 481.094 303.167 476.425L291.495 445.689C289.161 439.854 292.273 433.24 298.109 430.905C303.945 428.96 310.17 431.683 312.504 437.519L324.176 468.255C326.51 474.091 323.398 480.705 317.562 483.039C316.395 483.428 314.839 483.817 313.672 483.817Z" fill="#4FFAF7"/>
    <path fill-rule="evenodd" clip-rule="evenodd" d="M39.3813 325.468C33.9345 325.468 28.8768 321.578 28.0987 315.742C27.3205 309.517 31.2111 304.07 37.4361 302.903L69.7279 297.456C75.9528 296.678 81.7887 300.957 82.9559 306.793C83.734 313.018 79.8434 318.854 73.6185 320.021L41.3266 325.079C40.5485 325.468 39.7704 325.468 39.3813 325.468Z" fill="#82FA82"/>
    <path fill-rule="evenodd" clip-rule="evenodd" d="M97.352 425.846C95.0177 425.846 92.2943 425.068 90.349 423.512C85.2912 419.621 84.9022 412.229 88.7928 407.561L109.413 382.272C113.303 377.214 120.696 376.436 125.364 380.716C130.422 384.606 130.811 391.609 126.92 396.278L106.3 421.956C103.966 424.679 100.854 425.846 97.352 425.846Z" fill="#87F879"/>
    <path fill-rule="evenodd" clip-rule="evenodd" d="M118.361 134.826C114.86 134.826 111.747 133.27 109.413 130.547L88.7928 105.258C84.9022 100.2 85.2912 93.197 90.349 89.3064C95.0177 85.4158 102.41 86.194 106.3 90.8627L126.92 116.151C130.811 121.209 130.422 128.212 125.364 132.103C123.419 134.048 120.696 134.826 118.361 134.826Z" fill="#6F90FF"/>
    <path fill-rule="evenodd" clip-rule="evenodd" d="M71.6732 215.363C71.2841 215.363 70.506 215.363 69.7279 215.363L37.4361 209.916C31.2111 208.749 27.3205 202.913 28.0987 197.077C29.2658 190.852 35.1017 186.573 40.9376 187.74L73.6185 192.798C79.8434 193.965 83.734 199.801 82.9559 206.026C81.7887 211.472 77.12 215.363 71.6732 215.363Z" fill="#6D92F7"/>
  </g>

  <g transform="translate(40 140)">
    <rect x="0" y="0" width="220" height="136" rx="12" fill="#0C0B11" stroke="#2A2738" stroke-width="1" />
    <rect x="12" y="12" width="196" height="66" rx="8" fill="#21202C" stroke="#00000033" stroke-width="1" />
    <text x="12" y="96" fill="#EDF0FA" font-family="Menlo, Monaco, Consolas, monospace" font-size="13">base.00 background</text>
    <text x="12" y="113" fill="#EDF0FA" font-family="Menlo, Monaco, Consolas, monospace" font-size="13">#21202C</text>
    <text x="12" y="129" fill="#EDF0FA" font-family="Menlo, Monaco, Consolas, monospace" font-size="11">on ui.07 titleBar (#0C0B11)</text>
  </g>
  <g transform="translate(276 140)">
    <rect x="0" y="0" width="220" height="136" rx="12" fill="#21202C" stroke="#2A2738" stroke-width="1" />
    <rect x="12" y="12" width="196" height="66" rx="8" fill="#FCFCFA" stroke="#00000033" stroke-width="1" />
    <text x="12" y="96" fill="#EDF0FA" font-family="Menlo, Monaco, Consolas, monospace" font-size="13">base.01 foreground</text>
    <text x="12" y="113" fill="#EDF0FA" font-family="Menlo, Monaco, Consolas, monospace" font-size="13">#FCFCFA</text>
    <text x="12" y="129" fill="#EDF0FA" font-family="Menlo, Monaco, Consolas, monospace" font-size="11">on base.00 background (#21202C)</text>
  </g>
  <g transform="translate(512 140)">
    <rect x="0" y="0" width="220" height="136" rx="12" fill="#21202C" stroke="#2A2738" stroke-width="1" />
    <rect x="12" y="12" width="196" height="66" rx="8" fill="#4A435D" stroke="#00000033" stroke-width="1" />
    <text x="12" y="96" fill="#EDF0FA" font-family="Menlo, Monaco, Consolas, monospace" font-size="13">base.02 selection</text>
    <text x="12" y="113" fill="#EDF0FA" font-family="Menlo, Monaco, Consolas, monospace" font-size="13">#4A435D</text>
    <text x="12" y="129" fill="#EDF0FA" font-family="Menlo, Monaco, Consolas, monospace" font-size="11">on base.00 background (#21202C)</text>
  </g>
  <g transform="translate(748 140)">
    <rect x="0" y="0" width="220" height="136" rx="12" fill="#21202C" stroke="#2A2738" stroke-width="1" />
    <rect x="12" y="12" width="196" height="66" rx="8" fill="#5C6E89" stroke="#00000033" stroke-width="1" />
    <text x="12" y="96" fill="#EDF0FA" font-family="Menlo, Monaco, Consolas, monospace" font-size="13">base.03 comment</text>
    <text x="12" y="113" fill="#EDF0FA" font-family="Menlo, Monaco, Consolas, monospace" font-size="13">#5C6E89</text>
    <text x="12" y="129" fill="#EDF0FA" font-family="Menlo, Monaco, Consolas, monospace" font-size="11">on base.00 background (#21202C)</text>
  </g>
  <g transform="translate(984 140)">
    <rect x="0" y="0" width="220" height="136" rx="12" fill="#21202C" stroke="#2A2738" stroke-width="1" />
    <rect x="12" y="12" width="196" height="66" rx="8" fill="#5CFFF0" stroke="#00000033" stroke-width="1" />
    <text x="12" y="96" fill="#EDF0FA" font-family="Menlo, Monaco, Consolas, monospace" font-size="13">base.04 cyan</text>
    <text x="12" y="113" fill="#EDF0FA" font-family="Menlo, Monaco, Consolas, monospace" font-size="13">#5CFFF0</text>
    <text x="12" y="129" fill="#EDF0FA" font-family="Menlo, Monaco, Consolas, monospace" font-size="11">on base.00 background (#21202C)</text>
  </g>
  <g transform="translate(1220 140)">
    <rect x="0" y="0" width="220" height="136" rx="12" fill="#21202C" stroke="#2A2738" stroke-width="1" />
    <rect x="12" y="12" width="196" height="66" rx="8" fill="#82FA82" stroke="#00000033" stroke-width="1" />
    <text x="12" y="96" fill="#EDF0FA" font-family="Menlo, Monaco, Consolas, monospace" font-size="13">base.05 green</text>
    <text x="12" y="113" fill="#EDF0FA" font-family="Menlo, Monaco, Consolas, monospace" font-size="13">#82FA82</text>
    <text x="12" y="129" fill="#EDF0FA" font-family="Menlo, Monaco, Consolas, monospace" font-size="11">on base.00 background (#21202C)</text>
  </g>
  <g transform="translate(1456 140)">
    <rect x="0" y="0" width="220" height="136" rx="12" fill="#21202C" stroke="#2A2738" stroke-width="1" />
    <rect x="12" y="12" width="196" height="66" rx="8" fill="#FFB65E" stroke="#00000033" stroke-width="1" />
    <text x="12" y="96" fill="#EDF0FA" font-family="Menlo, Monaco, Consolas, monospace" font-size="13">base.06 orange</text>
    <text x="12" y="113" fill="#EDF0FA" font-family="Menlo, Monaco, Consolas, monospace" font-size="13">#FFB65E</text>
    <text x="12" y="129" fill="#EDF0FA" font-family="Menlo, Monaco, Consolas, monospace" font-size="11">on base.00 background (#21202C)</text>
  </g>
  <g transform="translate(40 292)">
    <rect x="0" y="0" width="220" height="136" rx="12" fill="#21202C" stroke="#2A2738" stroke-width="1" />
    <rect x="12" y="12" width="196" height="66" rx="8" fill="#FF6FA0" stroke="#00000033" stroke-width="1" />
    <text x="12" y="96" fill="#EDF0FA" font-family="Menlo, Monaco, Consolas, monospace" font-size="13">base.07 pink</text>
    <text x="12" y="113" fill="#EDF0FA" font-family="Menlo, Monaco, Consolas, monospace" font-size="13">#FF6FA0</text>
    <text x="12" y="129" fill="#EDF0FA" font-family="Menlo, Monaco, Consolas, monospace" font-size="11">on base.00 background (#21202C)</text>
  </g>
  <g transform="translate(276 292)">
    <rect x="0" y="0" width="220" height="136" rx="12" fill="#21202C" stroke="#2A2738" stroke-width="1" />
    <rect x="12" y="12" width="196" height="66" rx="8" fill="#6F90FF" stroke="#00000033" stroke-width="1" />
    <text x="12" y="96" fill="#EDF0FA" font-family="Menlo, Monaco, Consolas, monospace" font-size="13">base.08 purple</text>
    <text x="12" y="113" fill="#EDF0FA" font-family="Menlo, Monaco, Consolas, monospace" font-size="13">#6F90FF</text>
    <text x="12" y="129" fill="#EDF0FA" font-family="Menlo, Monaco, Consolas, monospace" font-size="11">on base.00 background (#21202C)</text>
  </g>
  <g transform="translate(512 292)">
    <rect x="0" y="0" width="220" height="136" rx="12" fill="#21202C" stroke="#2A2738" stroke-width="1" />
    <rect x="12" y="12" width="196" height="66" rx="8" fill="#FB6583" stroke="#00000033" stroke-width="1" />
    <text x="12" y="96" fill="#EDF0FA" font-family="Menlo, Monaco, Consolas, monospace" font-size="13">base.09 red</text>
    <text x="12" y="113" fill="#EDF0FA" font-family="Menlo, Monaco, Consolas, monospace" font-size="13">#FB6583</text>
    <text x="12" y="129" fill="#EDF0FA" font-family="Menlo, Monaco, Consolas, monospace" font-size="11">on base.00 background (#21202C)</text>
  </g>
  <g transform="translate(748 292)">
    <rect x="0" y="0" width="220" height="136" rx="12" fill="#21202C" stroke="#2A2738" stroke-width="1" />
    <rect x="12" y="12" width="196" height="66" rx="8" fill="#FFF066" stroke="#00000033" stroke-width="1" />
    <text x="12" y="96" fill="#EDF0FA" font-family="Menlo, Monaco, Consolas, monospace" font-size="13">base.10 yellow</text>
    <text x="12" y="113" fill="#EDF0FA" font-family="Menlo, Monaco, Consolas, monospace" font-size="13">#FFF066</text>
    <text x="12" y="129" fill="#EDF0FA" font-family="Menlo, Monaco, Consolas, monospace" font-size="11">on base.00 background (#21202C)</text>
  </g>
  <g transform="translate(984 292)">
    <rect x="0" y="0" width="220" height="136" rx="12" fill="#0C0B11" stroke="#2A2738" stroke-width="1" />
    <rect x="12" y="12" width="196" height="66" rx="8" fill="#20232E" stroke="#00000033" stroke-width="1" />
    <text x="12" y="96" fill="#EDF0FA" font-family="Menlo, Monaco, Consolas, monospace" font-size="13">ansi.00 black</text>
    <text x="12" y="113" fill="#EDF0FA" font-family="Menlo, Monaco, Consolas, monospace" font-size="13">#20232E</text>
    <text x="12" y="129" fill="#EDF0FA" font-family="Menlo, Monaco, Consolas, monospace" font-size="11">on ui.07 titleBar (#0C0B11)</text>
  </g>
  <g transform="translate(1220 292)">
    <rect x="0" y="0" width="220" height="136" rx="12" fill="#20232E" stroke="#2A2738" stroke-width="1" />
    <rect x="12" y="12" width="196" height="66" rx="8" fill="#FC6B74" stroke="#00000033" stroke-width="1" />
    <text x="12" y="96" fill="#EDF0FA" font-family="Menlo, Monaco, Consolas, monospace" font-size="13">ansi.01 red</text>
    <text x="12" y="113" fill="#EDF0FA" font-family="Menlo, Monaco, Consolas, monospace" font-size="13">#FC6B74</text>
    <text x="12" y="129" fill="#EDF0FA" font-family="Menlo, Monaco, Consolas, monospace" font-size="11">on ansi.00 black (#20232E)</text>
  </g>
  <g transform="translate(1456 292)">
    <rect x="0" y="0" width="220" height="136" rx="12" fill="#20232E" stroke="#2A2738" stroke-width="1" />
    <rect x="12" y="12" width="196" height="66" rx="8" fill="#87F879" stroke="#00000033" stroke-width="1" />
    <text x="12" y="96" fill="#EDF0FA" font-family="Menlo, Monaco, Consolas, monospace" font-size="13">ansi.02 green</text>
    <text x="12" y="113" fill="#EDF0FA" font-family="Menlo, Monaco, Consolas, monospace" font-size="13">#87F879</text>
    <text x="12" y="129" fill="#EDF0FA" font-family="Menlo, Monaco, Consolas, monospace" font-size="11">on ansi.00 black (#20232E)</text>
  </g>
  <g transform="translate(40 444)">
    <rect x="0" y="0" width="220" height="136" rx="12" fill="#20232E" stroke="#2A2738" stroke-width="1" />
    <rect x="12" y="12" width="196" height="66" rx="8" fill="#FFE74A" stroke="#00000033" stroke-width="1" />
    <text x="12" y="96" fill="#EDF0FA" font-family="Menlo, Monaco, Consolas, monospace" font-size="13">ansi.03 yellow</text>
    <text x="12" y="113" fill="#EDF0FA" font-family="Menlo, Monaco, Consolas, monospace" font-size="13">#FFE74A</text>
    <text x="12" y="129" fill="#EDF0FA" font-family="Menlo, Monaco, Consolas, monospace" font-size="11">on ansi.00 black (#20232E)</text>
  </g>
  <g transform="translate(276 444)">
    <rect x="0" y="0" width="220" height="136" rx="12" fill="#20232E" stroke="#2A2738" stroke-width="1" />
    <rect x="12" y="12" width="196" height="66" rx="8" fill="#6D92F7" stroke="#00000033" stroke-width="1" />
    <text x="12" y="96" fill="#EDF0FA" font-family="Menlo, Monaco, Consolas, monospace" font-size="13">ansi.04 blue</text>
    <text x="12" y="113" fill="#EDF0FA" font-family="Menlo, Monaco, Consolas, monospace" font-size="13">#6D92F7</text>
    <text x="12" y="129" fill="#EDF0FA" font-family="Menlo, Monaco, Consolas, monospace" font-size="11">on ansi.00 black (#20232E)</text>
  </g>
  <g transform="translate(512 444)">
    <rect x="0" y="0" width="220" height="136" rx="12" fill="#20232E" stroke="#2A2738" stroke-width="1" />
    <rect x="12" y="12" width="196" height="66" rx="8" fill="#E66B9A" stroke="#00000033" stroke-width="1" />
    <text x="12" y="96" fill="#EDF0FA" font-family="Menlo, Monaco, Consolas, monospace" font-size="13">ansi.05 magenta</text>
    <text x="12" y="113" fill="#EDF0FA" font-family="Menlo, Monaco, Consolas, monospace" font-size="13">#E66B9A</text>
    <text x="12" y="129" fill="#EDF0FA" font-family="Menlo, Monaco, Consolas, monospace" font-size="11">on ansi.00 black (#20232E)</text>
  </g>
  <g transform="translate(748 444)">
    <rect x="0" y="0" width="220" height="136" rx="12" fill="#20232E" stroke="#2A2738" stroke-width="1" />
    <rect x="12" y="12" width="196" height="66" rx="8" fill="#4FFAF7" stroke="#00000033" stroke-width="1" />
    <text x="12" y="96" fill="#EDF0FA" font-family="Menlo, Monaco, Consolas, monospace" font-size="13">ansi.06 cyan</text>
    <text x="12" y="113" fill="#EDF0FA" font-family="Menlo, Monaco, Consolas, monospace" font-size="13">#4FFAF7</text>
    <text x="12" y="129" fill="#EDF0FA" font-family="Menlo, Monaco, Consolas, monospace" font-size="11">on ansi.00 black (#20232E)</text>
  </g>
  <g transform="translate(984 444)">
    <rect x="0" y="0" width="220" height="136" rx="12" fill="#20232E" stroke="#2A2738" stroke-width="1" />
    <rect x="12" y="12" width="196" height="66" rx="8" fill="#F8FFF4" stroke="#00000033" stroke-width="1" />
    <text x="12" y="96" fill="#EDF0FA" font-family="Menlo, Monaco, Consolas, monospace" font-size="13">ansi.07 white</text>
    <text x="12" y="113" fill="#EDF0FA" font-family="Menlo, Monaco, Consolas, monospace" font-size="13">#F8FFF4</text>
    <text x="12" y="129" fill="#EDF0FA" font-family="Menlo, Monaco, Consolas, monospace" font-size="11">on ansi.00 black (#20232E)</text>
  </g>
  <g transform="translate(1220 444)">
    <rect x="0" y="0" width="220" height="136" rx="12" fill="#20232E" stroke="#2A2738" stroke-width="1" />
    <rect x="12" y="12" width="196" height="66" rx="8" fill="#667893" stroke="#00000033" stroke-width="1" />
    <text x="12" y="96" fill="#EDF0FA" font-family="Menlo, Monaco, Consolas, monospace" font-size="13">ansi.08 brightBlack</text>
    <text x="12" y="113" fill="#EDF0FA" font-family="Menlo, Monaco, Consolas, monospace" font-size="13">#667893</text>
    <text x="12" y="129" fill="#EDF0FA" font-family="Menlo, Monaco, Consolas, monospace" font-size="11">on ansi.00 black (#20232E)</text>
  </g>
  <g transform="translate(1456 444)">
    <rect x="0" y="0" width="220" height="136" rx="12" fill="#20232E" stroke="#2A2738" stroke-width="1" />
    <rect x="12" y="12" width="196" height="66" rx="8" fill="#FEA8AC" stroke="#00000033" stroke-width="1" />
    <text x="12" y="96" fill="#EDF0FA" font-family="Menlo, Monaco, Consolas, monospace" font-size="13">ansi.09 brightRed</text>
    <text x="12" y="113" fill="#EDF0FA" font-family="Menlo, Monaco, Consolas, monospace" font-size="13">#FEA8AC</text>
    <text x="12" y="129" fill="#EDF0FA" font-family="Menlo, Monaco, Consolas, monospace" font-size="11">on ansi.00 black (#20232E)</text>
  </g>
  <g transform="translate(40 596)">
    <rect x="0" y="0" width="220" height="136" rx="12" fill="#20232E" stroke="#2A2738" stroke-width="1" />
    <rect x="12" y="12" width="196" height="66" rx="8" fill="#B9FFAC" stroke="#00000033" stroke-width="1" />
    <text x="12" y="96" fill="#EDF0FA" font-family="Menlo, Monaco, Consolas, monospace" font-size="13">ansi.10 brightGreen</text>
    <text x="12" y="113" fill="#EDF0FA" font-family="Menlo, Monaco, Consolas, monospace" font-size="13">#B9FFAC</text>
    <text x="12" y="129" fill="#EDF0FA" font-family="Menlo, Monaco, Consolas, monospace" font-size="11">on ansi.00 black (#20232E)</text>
  </g>
  <g transform="translate(276 596)">
    <rect x="0" y="0" width="220" height="136" rx="12" fill="#20232E" stroke="#2A2738" stroke-width="1" />
    <rect x="12" y="12" width="196" height="66" rx="8" fill="#FFF79E" stroke="#00000033" stroke-width="1" />
    <text x="12" y="96" fill="#EDF0FA" font-family="Menlo, Monaco, Consolas, monospace" font-size="13">ansi.11 brightYellow</text>
    <text x="12" y="113" fill="#EDF0FA" font-family="Menlo, Monaco, Consolas, monospace" font-size="13">#FFF79E</text>
    <text x="12" y="129" fill="#EDF0FA" font-family="Menlo, Monaco, Consolas, monospace" font-size="11">on ansi.00 black (#20232E)</text>
  </g>
  <g transform="translate(512 596)">
    <rect x="0" y="0" width="220" height="136" rx="12" fill="#20232E" stroke="#2A2738" stroke-width="1" />
    <rect x="12" y="12" width="196" height="66" rx="8" fill="#A3B9FF" stroke="#00000033" stroke-width="1" />
    <text x="12" y="96" fill="#EDF0FA" font-family="Menlo, Monaco, Consolas, monospace" font-size="13">ansi.12 brightBlue</text>
    <text x="12" y="113" fill="#EDF0FA" font-family="Menlo, Monaco, Consolas, monospace" font-size="13">#A3B9FF</text>
    <text x="12" y="129" fill="#EDF0FA" font-family="Menlo, Monaco, Consolas, monospace" font-size="11">on ansi.00 black (#20232E)</text>
  </g>
  <g transform="translate(748 596)">
    <rect x="0" y="0" width="220" height="136" rx="12" fill="#20232E" stroke="#2A2738" stroke-width="1" />
    <rect x="12" y="12" width="196" height="66" rx="8" fill="#F299BD" stroke="#00000033" stroke-width="1" />
    <text x="12" y="96" fill="#EDF0FA" font-family="Menlo, Monaco, Consolas, monospace" font-size="13">ansi.13 brightMagenta</text>
    <text x="12" y="113" fill="#EDF0FA" font-family="Menlo, Monaco, Consolas, monospace" font-size="13">#F299BD</text>
    <text x="12" y="129" fill="#EDF0FA" font-family="Menlo, Monaco, Consolas, monospace" font-size="11">on ansi.00 black (#20232E)</text>
  </g>
  <g transform="translate(984 596)">
    <rect x="0" y="0" width="220" height="136" rx="12" fill="#20232E" stroke="#2A2738" stroke-width="1" />
    <rect x="12" y="12" width="196" height="66" rx="8" fill="#92FFF2" stroke="#00000033" stroke-width="1" />
    <text x="12" y="96" fill="#EDF0FA" font-family="Menlo, Monaco, Consolas, monospace" font-size="13">ansi.14 brightCyan</text>
    <text x="12" y="113" fill="#EDF0FA" font-family="Menlo, Monaco, Consolas, monospace" font-size="13">#92FFF2</text>
    <text x="12" y="129" fill="#EDF0FA" font-family="Menlo, Monaco, Consolas, monospace" font-size="11">on ansi.00 black (#20232E)</text>
  </g>
  <g transform="translate(1220 596)">
    <rect x="0" y="0" width="220" height="136" rx="12" fill="#20232E" stroke="#2A2738" stroke-width="1" />
    <rect x="12" y="12" width="196" height="66" rx="8" fill="#FFF6F6" stroke="#00000033" stroke-width="1" />
    <text x="12" y="96" fill="#EDF0FA" font-family="Menlo, Monaco, Consolas, monospace" font-size="13">ansi.15 brightWhite</text>
    <text x="12" y="113" fill="#EDF0FA" font-family="Menlo, Monaco, Consolas, monospace" font-size="13">#FFF6F6</text>
    <text x="12" y="129" fill="#EDF0FA" font-family="Menlo, Monaco, Consolas, monospace" font-size="11">on ansi.00 black (#20232E)</text>
  </g>
  <g transform="translate(1456 596)">
    <rect x="0" y="0" width="220" height="136" rx="12" fill="#161422" stroke="#2A2738" stroke-width="1" />
    <rect x="12" y="12" width="196" height="66" rx="8" fill="#333141" stroke="#00000033" stroke-width="1" />
    <text x="12" y="96" fill="#EDF0FA" font-family="Menlo, Monaco, Consolas, monospace" font-size="13">ui.00 surface0</text>
    <text x="12" y="113" fill="#EDF0FA" font-family="Menlo, Monaco, Consolas, monospace" font-size="13">#333141</text>
    <text x="12" y="129" fill="#EDF0FA" font-family="Menlo, Monaco, Consolas, monospace" font-size="11">on ui.06 sideBar (#161422)</text>
  </g>
  <g transform="translate(40 748)">
    <rect x="0" y="0" width="220" height="136" rx="12" fill="#161422" stroke="#2A2738" stroke-width="1" />
    <rect x="12" y="12" width="196" height="66" rx="8" fill="#383454" stroke="#00000033" stroke-width="1" />
    <text x="12" y="96" fill="#EDF0FA" font-family="Menlo, Monaco, Consolas, monospace" font-size="13">ui.01 surface1</text>
    <text x="12" y="113" fill="#EDF0FA" font-family="Menlo, Monaco, Consolas, monospace" font-size="13">#383454</text>
    <text x="12" y="129" fill="#EDF0FA" font-family="Menlo, Monaco, Consolas, monospace" font-size="11">on ui.06 sideBar (#161422)</text>
  </g>
  <g transform="translate(276 748)">
    <rect x="0" y="0" width="220" height="136" rx="12" fill="#161422" stroke="#2A2738" stroke-width="1" />
    <rect x="12" y="12" width="196" height="66" rx="8" fill="#FAF9F9" stroke="#00000033" stroke-width="1" />
    <text x="12" y="96" fill="#EDF0FA" font-family="Menlo, Monaco, Consolas, monospace" font-size="13">ui.02 contrastText</text>
    <text x="12" y="113" fill="#EDF0FA" font-family="Menlo, Monaco, Consolas, monospace" font-size="13">#FAF9F9</text>
    <text x="12" y="129" fill="#EDF0FA" font-family="Menlo, Monaco, Consolas, monospace" font-size="11">on ui.06 sideBar (#161422)</text>
  </g>
  <g transform="translate(512 748)">
    <rect x="0" y="0" width="220" height="136" rx="12" fill="#161422" stroke="#2A2738" stroke-width="1" />
    <rect x="12" y="12" width="196" height="66" rx="8" fill="#302D43" stroke="#00000033" stroke-width="1" />
    <text x="12" y="96" fill="#EDF0FA" font-family="Menlo, Monaco, Consolas, monospace" font-size="13">ui.03 surface2</text>
    <text x="12" y="113" fill="#EDF0FA" font-family="Menlo, Monaco, Consolas, monospace" font-size="13">#302D43</text>
    <text x="12" y="129" fill="#EDF0FA" font-family="Menlo, Monaco, Consolas, monospace" font-size="11">on ui.06 sideBar (#161422)</text>
  </g>
  <g transform="translate(748 748)">
    <rect x="0" y="0" width="220" height="136" rx="12" fill="#161422" stroke="#2A2738" stroke-width="1" />
    <rect x="12" y="12" width="196" height="66" rx="8" fill="#444652" stroke="#00000033" stroke-width="1" />
    <text x="12" y="96" fill="#EDF0FA" font-family="Menlo, Monaco, Consolas, monospace" font-size="13">ui.04 surface3</text>
    <text x="12" y="113" fill="#EDF0FA" font-family="Menlo, Monaco, Consolas, monospace" font-size="13">#444652</text>
    <text x="12" y="129" fill="#EDF0FA" font-family="Menlo, Monaco, Consolas, monospace" font-size="11">on ui.06 sideBar (#161422)</text>
  </g>
  <g transform="translate(984 748)">
    <rect x="0" y="0" width="220" height="136" rx="12" fill="#161422" stroke="#2A2738" stroke-width="1" />
    <rect x="12" y="12" width="196" height="66" rx="8" fill="#2C2842" stroke="#00000033" stroke-width="1" />
    <text x="12" y="96" fill="#EDF0FA" font-family="Menlo, Monaco, Consolas, monospace" font-size="13">ui.05 activityBar</text>
    <text x="12" y="113" fill="#EDF0FA" font-family="Menlo, Monaco, Consolas, monospace" font-size="13">#2C2842</text>
    <text x="12" y="129" fill="#EDF0FA" font-family="Menlo, Monaco, Consolas, monospace" font-size="11">on ui.06 sideBar (#161422)</text>
  </g>
  <g transform="translate(1220 748)">
    <rect x="0" y="0" width="220" height="136" rx="12" fill="#21202C" stroke="#2A2738" stroke-width="1" />
    <rect x="12" y="12" width="196" height="66" rx="8" fill="#161422" stroke="#00000033" stroke-width="1" />
    <text x="12" y="96" fill="#EDF0FA" font-family="Menlo, Monaco, Consolas, monospace" font-size="13">ui.06 sideBar</text>
    <text x="12" y="113" fill="#EDF0FA" font-family="Menlo, Monaco, Consolas, monospace" font-size="13">#161422</text>
    <text x="12" y="129" fill="#EDF0FA" font-family="Menlo, Monaco, Consolas, monospace" font-size="11">on base.00 background (#21202C)</text>
  </g>
  <g transform="translate(1456 748)">
    <rect x="0" y="0" width="220" height="136" rx="12" fill="#21202C" stroke="#2A2738" stroke-width="1" />
    <rect x="12" y="12" width="196" height="66" rx="8" fill="#0C0B11" stroke="#00000033" stroke-width="1" />
    <text x="12" y="96" fill="#EDF0FA" font-family="Menlo, Monaco, Consolas, monospace" font-size="13">ui.07 titleBar</text>
    <text x="12" y="113" fill="#EDF0FA" font-family="Menlo, Monaco, Consolas, monospace" font-size="13">#0C0B11</text>
    <text x="12" y="129" fill="#EDF0FA" font-family="Menlo, Monaco, Consolas, monospace" font-size="11">on base.00 background (#21202C)</text>
  </g>
</svg>
